<svg xmlns="http://www.w3.org/2000/svg" xmlns:xlink="http://www.w3.org/1999/xlink" width="500" zoomAndPan="magnify" viewBox="0 0 375 374.999991" height="500" preserveAspectRatio="xMidYMid meet" version="1.0"><defs><g/><clipPath id="ab1acd469f"><path d="M 182 100.304688 L 193 100.304688 L 193 168.554688 L 182 168.554688 Z M 182 100.304688 " clip-rule="nonzero"/></clipPath><clipPath id="e34719d14b"><path d="M 241 129 L 244.324219 129 L 244.324219 140 L 241 140 Z M 241 129 " clip-rule="nonzero"/></clipPath><clipPath id="d253cca2cf"><path d="M 130.324219 129 L 134 129 L 134 140 L 130.324219 140 Z M 130.324219 129 " clip-rule="nonzero"/></clipPath></defs><g clip-path="url(#ab1acd469f)"><path fill="#505c93" d="M 192.074219 165.582031 C 192.074219 167.417969 190.585938 168.90625 188.75 168.90625 L 186.214844 168.90625 C 184.375 168.90625 182.890625 167.417969 182.890625 165.582031 L 182.890625 103.617188 C 182.890625 101.78125 184.375 100.292969 186.214844 100.292969 L 188.75 100.292969 C 190.585938 100.292969 192.074219 101.78125 192.074219 103.617188 L 192.074219 165.582031 " fill-opacity="1" fill-rule="nonzero"/></g><path fill="#505c93" d="M 203.316406 157.175781 C 203.316406 159.011719 201.828125 160.5 199.992188 160.5 L 199.796875 160.5 C 197.960938 160.5 196.472656 159.011719 196.472656 157.175781 L 196.472656 112.023438 C 196.472656 110.1875 197.960938 108.699219 199.796875 108.699219 L 199.992188 108.699219 C 201.828125 108.699219 203.316406 110.1875 203.316406 112.023438 L 203.316406 157.175781 " fill-opacity="1" fill-rule="nonzero"/><path fill="#505c93" d="M 213.089844 148.480469 C 213.089844 150.207031 211.691406 151.605469 209.960938 151.605469 C 208.234375 151.605469 206.835938 150.207031 206.835938 148.480469 L 206.835938 120.722656 C 206.835938 118.996094 208.234375 117.59375 209.960938 117.59375 C 211.691406 117.59375 213.089844 118.996094 213.089844 120.722656 L 213.089844 148.480469 " fill-opacity="1" fill-rule="nonzero"/><path fill="#505c93" d="M 222.277344 156.101562 C 222.277344 157.613281 221.050781 158.839844 219.539062 158.839844 C 218.027344 158.839844 216.804688 157.613281 216.804688 156.101562 L 216.804688 113.097656 C 216.804688 111.585938 218.027344 110.363281 219.539062 110.363281 C 221.050781 110.363281 222.277344 111.585938 222.277344 113.097656 L 222.277344 156.101562 " fill-opacity="1" fill-rule="nonzero"/><path fill="#505c93" d="M 230.878906 143.980469 C 230.878906 145.386719 229.738281 146.523438 228.335938 146.523438 C 226.933594 146.523438 225.796875 145.386719 225.796875 143.980469 L 225.796875 125.214844 C 225.796875 123.8125 226.933594 122.675781 228.335938 122.675781 C 229.738281 122.675781 230.878906 123.8125 230.878906 125.214844 L 230.878906 143.980469 " fill-opacity="1" fill-rule="nonzero"/><path fill="#505c93" d="M 238.5 140.855469 C 238.5 142.042969 237.539062 143.007812 236.351562 143.007812 C 235.164062 143.007812 234.203125 142.042969 234.203125 140.855469 L 234.203125 128.34375 C 234.203125 127.15625 235.164062 126.195312 236.351562 126.195312 C 237.539062 126.195312 238.5 127.15625 238.5 128.34375 L 238.5 140.855469 " fill-opacity="1" fill-rule="nonzero"/><g clip-path="url(#e34719d14b)"><path fill="#505c93" d="M 244.5625 138.019531 C 244.5625 138.992188 243.773438 139.78125 242.800781 139.78125 C 241.832031 139.78125 241.042969 138.992188 241.042969 138.019531 L 241.042969 131.179688 C 241.042969 130.207031 241.832031 129.421875 242.800781 129.421875 C 243.773438 129.421875 244.5625 130.207031 244.5625 131.179688 L 244.5625 138.019531 " fill-opacity="1" fill-rule="nonzero"/></g><path fill="#505c93" d="M 171.648438 157.175781 C 171.648438 159.011719 173.136719 160.5 174.972656 160.5 L 175.167969 160.5 C 177.003906 160.5 178.492188 159.011719 178.492188 157.175781 L 178.492188 112.023438 C 178.492188 110.1875 177.003906 108.699219 175.167969 108.699219 L 174.972656 108.699219 C 173.136719 108.699219 171.648438 110.1875 171.648438 112.023438 L 171.648438 157.175781 " fill-opacity="1" fill-rule="nonzero"/><path fill="#505c93" d="M 161.875 148.480469 C 161.875 150.207031 163.273438 151.605469 165.003906 151.605469 C 166.730469 151.605469 168.128906 150.207031 168.128906 148.480469 L 168.128906 120.722656 C 168.128906 118.996094 166.730469 117.59375 165.003906 117.59375 C 163.273438 117.59375 161.875 118.996094 161.875 120.722656 L 161.875 148.480469 " fill-opacity="1" fill-rule="nonzero"/><path fill="#505c93" d="M 152.6875 156.101562 C 152.6875 157.613281 153.914062 158.839844 155.425781 158.839844 C 156.9375 158.839844 158.160156 157.613281 158.160156 156.101562 L 158.160156 113.097656 C 158.160156 111.585938 156.9375 110.363281 155.425781 110.363281 C 153.914062 110.363281 152.6875 111.585938 152.6875 113.097656 L 152.6875 156.101562 " fill-opacity="1" fill-rule="nonzero"/><path fill="#505c93" d="M 144.085938 143.980469 C 144.085938 145.386719 145.226562 146.523438 146.628906 146.523438 C 148.03125 146.523438 149.167969 145.386719 149.167969 143.980469 L 149.167969 125.214844 C 149.167969 123.8125 148.03125 122.675781 146.628906 122.675781 C 145.226562 122.675781 144.085938 123.8125 144.085938 125.214844 L 144.085938 143.980469 " fill-opacity="1" fill-rule="nonzero"/><path fill="#505c93" d="M 136.460938 140.855469 C 136.460938 142.042969 137.425781 143.007812 138.613281 143.007812 C 139.800781 143.007812 140.765625 142.042969 140.765625 140.855469 L 140.765625 128.34375 C 140.765625 127.15625 139.800781 126.195312 138.613281 126.195312 C 137.425781 126.195312 136.460938 127.15625 136.460938 128.34375 L 136.460938 140.855469 " fill-opacity="1" fill-rule="nonzero"/><g clip-path="url(#d253cca2cf)"><path fill="#505c93" d="M 130.402344 138.019531 C 130.402344 138.992188 131.191406 139.78125 132.160156 139.78125 C 133.136719 139.78125 133.921875 138.992188 133.921875 138.019531 L 133.921875 131.179688 C 133.921875 130.207031 133.136719 129.421875 132.160156 129.421875 C 131.191406 129.421875 130.402344 130.207031 130.402344 131.179688 L 130.402344 138.019531 " fill-opacity="1" fill-rule="nonzero"/></g><g fill="#505c93" fill-opacity="1"><g transform="translate(116.503122, 234.11578)"><g><path d="M 23.953125 -8.15625 C 25.328125 -8.15625 26.660156 -8.363281 27.953125 -8.78125 C 29.253906 -9.195312 30.207031 -9.597656 30.8125 -9.984375 L 31.734375 -10.609375 L 35.5625 -2.921875 C 35.4375 -2.828125 35.257812 -2.695312 35.03125 -2.53125 C 34.8125 -2.375 34.289062 -2.082031 33.46875 -1.65625 C 32.65625 -1.226562 31.785156 -0.851562 30.859375 -0.53125 C 29.929688 -0.207031 28.710938 0.078125 27.203125 0.328125 C 25.703125 0.585938 24.15625 0.71875 22.5625 0.71875 C 18.882812 0.71875 15.394531 -0.179688 12.09375 -1.984375 C 8.800781 -3.796875 6.144531 -6.285156 4.125 -9.453125 C 2.113281 -12.617188 1.109375 -16.046875 1.109375 -19.734375 C 1.109375 -22.515625 1.695312 -25.179688 2.875 -27.734375 C 4.0625 -30.296875 5.640625 -32.488281 7.609375 -34.3125 C 9.578125 -36.144531 11.875 -37.601562 14.5 -38.6875 C 17.125 -39.769531 19.8125 -40.3125 22.5625 -40.3125 C 25.125 -40.3125 27.484375 -40.007812 29.640625 -39.40625 C 31.796875 -38.800781 33.320312 -38.191406 34.21875 -37.578125 L 35.5625 -36.671875 L 31.734375 -28.984375 C 31.503906 -29.179688 31.164062 -29.414062 30.71875 -29.6875 C 30.269531 -29.957031 29.375 -30.316406 28.03125 -30.765625 C 26.6875 -31.210938 25.328125 -31.4375 23.953125 -31.4375 C 21.773438 -31.4375 19.820312 -31.082031 18.09375 -30.375 C 16.363281 -29.675781 14.992188 -28.75 13.984375 -27.59375 C 12.984375 -26.445312 12.21875 -25.207031 11.6875 -23.875 C 11.15625 -22.550781 10.890625 -21.203125 10.890625 -19.828125 C 10.890625 -16.816406 12.015625 -14.117188 14.265625 -11.734375 C 16.523438 -9.347656 19.753906 -8.15625 23.953125 -8.15625 Z M 23.953125 -8.15625 "/></g></g></g><g fill="#505c93" fill-opacity="1"><g transform="translate(150.247063, 234.11578)"><g><path d="M 11.90625 -15.890625 L 11.90625 0 L 2.875 0 L 2.875 -39.59375 L 11.90625 -39.59375 L 11.90625 -23.8125 L 24.671875 -23.8125 L 24.671875 -39.59375 L 33.703125 -39.59375 L 33.703125 0 L 24.671875 0 L 24.671875 -15.890625 Z M 11.90625 -15.890625 "/></g></g></g><g fill="#505c93" fill-opacity="1"><g transform="translate(184.422995, 234.11578)"><g><path d="M 1.109375 -19.828125 C 1.109375 -25.554688 3.054688 -30.398438 6.953125 -34.359375 C 10.859375 -38.328125 15.566406 -40.3125 21.078125 -40.3125 C 26.609375 -40.3125 31.304688 -38.335938 35.171875 -34.390625 C 39.046875 -30.441406 40.984375 -25.585938 40.984375 -19.828125 C 40.984375 -14.035156 39.078125 -9.160156 35.265625 -5.203125 C 31.460938 -1.253906 26.734375 0.71875 21.078125 0.71875 C 15.285156 0.71875 10.507812 -1.238281 6.75 -5.15625 C 2.988281 -9.082031 1.109375 -13.972656 1.109375 -19.828125 Z M 10.84375 -19.828125 C 10.84375 -17.742188 11.160156 -15.84375 11.796875 -14.125 C 12.441406 -12.414062 13.5625 -10.96875 15.15625 -9.78125 C 16.757812 -8.601562 18.734375 -8.015625 21.078125 -8.015625 C 24.429688 -8.015625 26.960938 -9.164062 28.671875 -11.46875 C 30.390625 -13.769531 31.25 -16.554688 31.25 -19.828125 C 31.25 -23.054688 30.375 -25.828125 28.625 -28.140625 C 26.882812 -30.460938 24.367188 -31.625 21.078125 -31.625 C 17.804688 -31.625 15.28125 -30.460938 13.5 -28.140625 C 11.726562 -25.828125 10.84375 -23.054688 10.84375 -19.828125 Z M 10.84375 -19.828125 "/></g></g></g><g fill="#505c93" fill-opacity="1"><g transform="translate(224.118914, 234.11578)"><g><path d="M 2.875 -39.59375 L 17.046875 -39.59375 C 20.847656 -39.59375 23.945312 -38.578125 26.34375 -36.546875 C 28.75 -34.515625 29.953125 -31.613281 29.953125 -27.84375 C 29.953125 -24.925781 29.222656 -22.484375 27.765625 -20.515625 C 26.304688 -18.546875 24.332031 -17.164062 21.84375 -16.375 L 35.46875 0 L 24 0 L 11.90625 -15.640625 L 11.90625 0 L 2.875 0 Z M 11.90625 -22.03125 L 12.953125 -22.03125 C 13.785156 -22.03125 14.488281 -22.046875 15.0625 -22.078125 C 15.644531 -22.109375 16.300781 -22.21875 17.03125 -22.40625 C 17.769531 -22.601562 18.363281 -22.878906 18.8125 -23.234375 C 19.257812 -23.585938 19.644531 -24.097656 19.96875 -24.765625 C 20.289062 -25.441406 20.453125 -26.257812 20.453125 -27.21875 C 20.453125 -28.175781 20.289062 -28.988281 19.96875 -29.65625 C 19.644531 -30.332031 19.257812 -30.847656 18.8125 -31.203125 C 18.363281 -31.554688 17.769531 -31.828125 17.03125 -32.015625 C 16.300781 -32.203125 15.644531 -32.3125 15.0625 -32.34375 C 14.488281 -32.382812 13.785156 -32.40625 12.953125 -32.40625 L 11.90625 -32.40625 Z M 11.90625 -22.03125 "/></g></g></g></svg>